<?xml version="1.0" encoding="UTF-8" standalone="no"?><!DOCTYPE svg PUBLIC "-//W3C//DTD SVG 1.1//EN" "http://www.w3.org/Graphics/SVG/1.1/DTD/svg11.dtd"><svg width="100%" height="100%" viewBox="0 0 432 324" version="1.1" xmlns="http://www.w3.org/2000/svg" xmlns:xlink="http://www.w3.org/1999/xlink" xml:space="preserve" style="fill-rule:evenodd;clip-rule:evenodd;stroke-linejoin:round;stroke-miterlimit:1.41421;"><g transform="matrix(0.24,0,0,0.24,-12.24,27.84)"><g transform="matrix(0.92201,0,0,1,43.5812,0)"><text x="558.803px" y="619.542px" style="font-family:'MongolianBaiti', 'Mongolian Baiti', cursive;font-size:320.687px;fill:#fff;">illin</text></g><g transform="matrix(0.92201,0,0,1,80.7383,0)"><text x="1035.24px" y="615.375px" style="font-family:'MongolianBaiti', 'Mongolian Baiti', cursive;font-size:320.687px;fill:#fff;">g</text></g><g transform="matrix(0.92201,0,0,1,92.2682,0)"><text x="1183.07px" y="619.542px" style="font-family:'MongolianBaiti', 'Mongolian Baiti', cursive;font-size:320.687px;fill:#fff;">ham</text></g></g><text x="13.709px" y="116.182px" style="font-family:'Helvetica';font-size:10px;fill:#fff;">J<tspan x="19.459px 25.855px 31.605px " y="116.182px 116.182px 116.182px ">ake</tspan></text><text x="101.34px" y="116.182px" style="font-family:'Helvetica';font-size:10px;fill:#fff;">7<tspan x="107.736px " y="116.182px ">4</tspan></text><text x="27.663px" y="177.54px" style="font-family:'ImprintMT-Shadow', 'Imprint MT Shadow', fantasy;font-size:77px;fill:#fff;">W</text><text x="29.623px" y="192.465px" style="font-family:'Helvetica';font-size:14px;fill:#fff;">D<tspan x="41.25px 50.204px 58.254px 67.208px 70.785px 79.739px 88.693px 97.647px " y="192.465px 192.465px 192.465px 192.465px 192.465px 192.465px 192.465px 192.465px ">eveloper</tspan></text><clipPath id="_clip1"><rect x="13.709" y="102.778" width="103.486" height="94.62"/></clipPath><g clip-path="url(#_clip1)"><path d="M122.411,200.898l-7,0l0,-94.62l-105.202,0l0,-7l112.202,0l0,101.62Z" style="fill:#fff;"/></g><text x="390.647px" y="135.602px" style="font-family:'MongolianBaiti', 'Mongolian Baiti', cursive;font-size:9.5px;fill:#fff;">S<tspan x="395.775px " y="135.602px ">M</tspan></text></svg>
